<svg id="logo" xmlns="http://www.w3.org/2000/svg" width="512" height="512" viewBox="0 0 512 512">
  <g id="_-1182629072">
    <path id="Path_5950" data-name="Path 5950" d="M0,0H512V512H0Z" fill="rgba(255,255,255,0)" fill-rule="evenodd" opacity="0"/>
    <path id="Path_5951" data-name="Path 5951" d="M239.848,4.16c130.173,0,235.688,105.515,235.688,235.688S370.021,475.536,239.848,475.536,4.16,370.021,4.16,239.848,109.675,4.16,239.848,4.16Z" transform="translate(16.152 16.152)" fill="#0cf" fill-rule="evenodd"/>
    <path id="Path_5952" data-name="Path 5952" d="M29.36,308.078,76.283,92.507l144.04,154.44,5.859-37.3L255.429,23.27,377.35,152.808c.244,4.248.342,8.545.342,12.842,0,130.173-105.515,235.688-235.688,235.688-6.836,0-13.574-.293-20.263-.879L29.36,308.078Z" transform="translate(113.996 90.35)" fill="#0091b5" fill-rule="evenodd"/>
    <path id="Path_5953" data-name="Path 5953" d="M29.26,308.078V23.27H85.069L202.254,214.135V23.27h53.319V308.078H197.957L82.53,120.826V308.078Z" transform="translate(113.608 90.35)" fill="#fff"/>
  </g>
</svg>
