<svg xmlns="http://www.w3.org/2000/svg" xmlns:xlink="http://www.w3.org/1999/xlink" width="512" height="512" viewBox="0 0 512 512">
  <defs>
    <linearGradient id="linear-gradient" x1="0.661" y1="0.985" x2="0.351" y2="-0.029" gradientUnits="objectBoundingBox">
      <stop offset="0" stop-color="#b16d03"/>
      <stop offset="1" stop-color="#d9c4a4"/>
    </linearGradient>
  </defs>
  <g id="logo" transform="translate(8628 11309)">
    <rect id="Rectangle_23" data-name="Rectangle 23" width="512" height="512" transform="translate(-8628 -11309)" fill="none" opacity="0"/>
    <g id="Group_127" data-name="Group 127" transform="translate(-42.02 -10.448)">
      <path id="Path_37" data-name="Path 37" d="M449.334,255.872c-38.611,96.9-143.745,164.662-240.444,131.675-73.107-24.895-137.436-124.954-74.959-212.463,65.632-99.1,249.977-70.707,242.913,71.255-1.029,20.163,19.888,44.372,42.794,1.783,21.809-40.394,19.888-100.059-15.431-157.6C354.762,9.941,224.321-31.893,87.022,29.075c-34.77,15.431-85.314,57.2,1.852,21.054,81.954-33.947,160.89-27.981,212.532-.343,35.456,19,60.557,46.772,46.566,47.389-6.927.343-19.34-17.214-64.26-30.587-65.838-19.683-159.862-2.88-219.527,50.133-32.1,28.461-54.385,65.7-61.517,112.61a206.344,206.344,0,0,0,2.057,77.016c2.743,12.207,9.533,35.182,19.751,43.206,9.19,7.2,15.7-5.144,13.648-15.156C17.276,293.66,14.807,213.489,61.785,170.9c17.282-15.774,29.284-13.1,12.619,9.121-10.219,13.648-15.911,30.45-20.231,47.938C-4.6,467.306,401.465,562.84,470.183,273.566c6.378-21.466,1.44-65.632-20.849-17.694Zm-177.076-108.7a23.121,23.121,0,1,1-22.494,23.8A23.188,23.188,0,0,1,272.259,147.172Zm-.137,213.286c-33.4,12.413-50.818-34.222-19.751-46.018h0c19.614-7.132,34.359-27.569,24.758-52.464l-9.19-25.512A24.92,24.92,0,0,1,314.71,219.25l9.19,25.443c17.694,48.829-5.486,98.619-51.778,115.764Z" transform="translate(-8565.981 -11268.552)" fill-rule="evenodd" fill="url(#linear-gradient)"/>
      <path id="Path_39" data-name="Path 39" d="M220.755,227.342a25.033,25.033,0,0,1,32.027,14.745l9.19,25.512c11.179,30.861-35.593,48.075-46.772,17.214l-9.19-25.443A25.034,25.034,0,0,1,220.755,227.342ZM206.49,170.626A23.121,23.121,0,1,1,184,194.424,23.188,23.188,0,0,1,206.49,170.626Z" transform="translate(-8567.981 -11265.092)" fill="#0cb" fill-rule="evenodd"/>
    </g>
  </g>
</svg>
